<svg width="32" height="32" fill="none" xmlns="http://www.w3.org/2000/svg"><path fill-rule="evenodd" clip-rule="evenodd" d="M16 2.667C8.64 2.667 2.666 8.64 2.666 16S8.64 29.333 16 29.333c7.36 0 13.333-5.973 13.333-13.333S23.36 2.666 16 2.666zM5.333 16c0-.813.107-1.614.28-2.373L11.986 20v1.333c0 1.467 1.2 2.667 2.667 2.667v2.573c-5.24-.666-9.32-5.146-9.32-10.573zm15.987 5.333c1.2 0 2.186.787 2.533 1.867a10.655 10.655 0 002.813-7.2c0-4.467-2.773-8.307-6.68-9.88v.546c0 1.467-1.2 2.667-2.666 2.667h-2.667V12c0 .733-.6 1.333-1.333 1.333h-2.667V16h8c.733 0 1.333.6 1.333 1.333v4h1.334z" fill="#6F4BBB"/></svg>