<svg width="16" height="27" fill="none" xmlns="http://www.w3.org/2000/svg"><path d="M13.6 0H2.4C1.08 0 0 1.14 0 2.531V24.47C0 25.86 1.08 27 2.4 27h11.2c1.32 0 2.4-1.14 2.4-2.531V2.53C16 1.14 14.92 0 13.6 0zM4.8 1.266h6.4v.843H4.8v-.843zM8 25.313c-.424 0-.831-.178-1.131-.495a1.735 1.735 0 01-.469-1.193c0-.448.169-.877.469-1.193.3-.317.707-.494 1.131-.494.424 0 .831.177 1.131.494.3.316.469.745.469 1.193 0 .448-.169.877-.469 1.193-.3.317-.707.494-1.131.494zm6.4-5.063H1.6V3.375h12.8V20.25z" fill="#27BBA3"/></svg>