<svg width="25" height="25" fill="none" xmlns="http://www.w3.org/2000/svg" style="padding-top:3px"><path fill-rule="evenodd" clip-rule="evenodd" d="M11.972.667l10.35 10.35c.414.414.678 1 .678 1.633s-.253 1.208-.678 1.622l-8.05 8.05A2.249 2.249 0 0112.65 23a2.286 2.286 0 01-1.621-.667L.679 11.983c-.426-.425-.679-1-.679-1.633V2.3C0 1.035 1.035 0 2.3 0h8.05c.633 0 1.208.253 1.622.667zM2.3 10.35l10.35 10.362 8.05-8.073-10.35-10.35V2.3H2.3v8.05zm2.875-6.9a1.725 1.725 0 100 3.45 1.725 1.725 0 000-3.45zm3.45 10.35a2.366 2.366 0 01-.69-1.668 2.36 2.36 0 012.358-2.357c.644 0 1.242.264 1.667.701l.69.679.69-.69a2.346 2.346 0 011.668-.69 2.36 2.36 0 012.357 2.357c0 .645-.264 1.242-.69 1.668l-4.025 4.025L8.625 13.8z" fill="#fff"/></svg>