<svg width="685" height="164" fill="none" xmlns="http://www.w3.org/2000/svg" opacity="20%"><path fill="#FBFCFF" d="M424.282 101.524H390.93V164h33.352zm260.627 0h-33.352V164h33.352zM380.823 37.096h-33.352V164h33.352zm260.628 0h-33.352V164h33.352zM337.366 60.524h-33.352V164h33.352zm260.627 0h-33.352V164h33.352zM293.907 0h-33.352v163.999h33.352zm260.628 0h-33.352v163.999h33.352zM251.459 117.143h-34.362V164h34.362zm260.628 0h-34.362V164h34.362zm-304.086-15.619h-34.362V164h34.362zm260.629 0h-34.362V164h34.362zM164.543 37.096h-33.352V164h33.352zm-43.458 23.428H87.733V164h33.352zM77.627 0H44.275v163.999h33.352zM34.17 117.143H.816V164H34.17z"/></svg>