<svg width="67" height="67" fill="none" xmlns="http://www.w3.org/2000/svg"><path d="M35.318.708c18.089 1.01 31.983 16.573 30.973 34.712-1.01 18.088-16.573 31.983-34.712 30.922C13.491 65.332-.404 49.769.607 31.63 1.667 13.542 17.179-.353 35.318.708z" fill="#D3E8EF"/><path d="M8.49 49.77a30.04 30.04 0 01-4.8-17.988c.756-13.086 9.8-23.747 21.775-27.031a4200 4200 0 003.032 33.852c-3.992 1.617-14.3 6.771-20.009 11.167zM35.824 4.346c15.764.91 27.84 14.4 26.88 30.164-.152 2.224-.505 4.396-1.112 6.417.05-.455.101-.91.101-1.414 1.01-18.29-12.934-33.954-31.225-35.015h-.151c1.768-.152 3.638-.253 5.507-.152z" fill="#fff"/><path d="M61.592 50.527a28.922 28.922 0 01-1.97 2.88l-9.702-13.44-22.332 9.297-12.935-26.728-12.985 2.476c.354-1.213.707-2.426 1.162-3.588l13.642-2.627L29.154 45.02l21.828-9.095 10.61 14.602z" fill="#6F4BBB"/><path d="M50.88 31.176c-3.739-.202-6.922 2.628-7.124 6.366-.202 3.74 2.627 6.923 6.366 7.125 3.739.202 6.922-2.628 7.124-6.367.253-3.688-2.627-6.871-6.366-7.124z" fill="#1EC185"/><path d="M28.8 40.422c-3.738-.202-6.921 2.628-7.123 6.367-.202 3.739 2.627 6.922 6.366 7.124 3.739.202 6.922-2.628 7.124-6.366.253-3.74-2.627-6.923-6.366-7.125z" fill="#FF893A"/></svg>