<svg width="264" height="79" fill="none" xmlns="http://www.w3.org/2000/svg"><path d="M230.816 0h-90.267v79h88.618c14.014-6.183 25.555-14.976 33.936-25.28-3.298-17.036-15.526-39.294-32.287-53.72z" fill="#6F4BBB"/><path d="M225.595 6.594c11.953 12.366 23.769 27.341 27.753 44.378-7.144 8.518-16.487 15.113-26.516 19.922h-75.84v-64.3h74.603z" fill="#7D5DC2"/><path d="M246.478 33.523c2.336 3.298 6.732 16.625 7.007 17.45-7.144 8.517-16.487 15.112-26.516 19.92h-40.393V36.41a731.246 731.246 0 0059.902-2.886z" fill="#9478CF"/><path d="M231.228 62.238c-9.343 3.16-13.739 9.068-15.113 16.762h32.562c-2.199-6.595-8.381-14.701-17.449-16.762z" fill="#5F3EA7"/><path d="M231.367 65.81c5.083 1.374 9.342 5.359 12.09 9.892h-12.228V65.81h.138z" fill="#6F4BBB"/><path d="M199.079 60.315C186.576 63.749 180.531 72.13 179.02 79h43.416c-2.886-7.282-11.679-17.037-23.357-18.685z" fill="#5F3EA7"/><path d="M199.354 63.75c6.869 1.236 13.601 6.045 17.586 11.953h-17.861V63.749h.275zM32.287 0h90.266v79H33.935C19.921 72.817 8.381 64.024 0 53.72 3.16 36.684 15.388 14.426 32.287 0z" fill="#6F4BBB"/><path d="M37.368 6.594C25.415 18.96 13.6 33.935 9.615 50.972c7.145 8.518 16.487 15.113 26.517 19.922h75.84v-64.3H37.368z" fill="#7D5DC2"/><path d="M16.624 33.523c-2.335 3.298-6.732 16.625-7.007 17.45 7.145 8.517 16.487 15.112 26.517 19.92h40.393V36.41a728.322 728.322 0 01-59.903-2.886z" fill="#9478CF"/><path d="M31.735 62.238c9.343 3.16 13.74 9.068 15.113 16.762H14.287c2.198-6.595 8.38-14.701 17.448-16.762z" fill="#5F3EA7"/><path d="M31.598 65.81c-5.083 1.374-9.343 5.359-12.09 9.892h12.227V65.81h-.137z" fill="#6F4BBB"/><path d="M63.885 60.315C76.387 63.749 82.433 72.13 83.944 79H40.528c2.885-7.282 11.678-17.037 23.357-18.685z" fill="#5F3EA7"/><path d="M63.748 63.75c-6.87 1.236-13.602 6.045-17.587 11.953h17.861V63.749h-.275z" fill="#6F4BBB"/></svg>