<svg width="40" height="40" fill="none" xmlns="http://www.w3.org/2000/svg"><g clip-path="url(#clip0_54_15047)"><path d="M9.688 17.246c.169 0 .358.026.566.078.208.052.417.124.625.215.208.091.417.176.625.254.208.078.397.156.566.234l-.312.04a2.897 2.897 0 01-.332.019c-.222 0-.423-.033-.606-.098a2.314 2.314 0 01-.508-.254 1.974 1.974 0 00-.468-.234 3.6 3.6 0 00-.43-.117.775.775 0 00-.351.078c-.105.052-.209.11-.313.176 0-.053-.046-.079-.137-.079.091-.09.26-.162.508-.215a5.7 5.7 0 01.567-.097zm2.636.879a3.8 3.8 0 011.465.273 3.962 3.962 0 01-1.113.234c-.26 0-.495-.026-.703-.078.065-.104.13-.169.195-.195.065-.026.117-.104.156-.234zM20 0c1.836 0 3.6.24 5.293.722a20.876 20.876 0 014.766 2.012A19.295 19.295 0 0134.12 5.88a20.614 20.614 0 013.125 4.043 20.525 20.525 0 012.031 4.765 18.62 18.62 0 01.723 5.313c0 1.836-.24 3.6-.723 5.293a20.877 20.877 0 01-2.011 4.765 19.293 19.293 0 01-3.145 4.063 20.616 20.616 0 01-4.043 3.125 20.527 20.527 0 01-4.765 2.031c-1.72.495-3.49.736-5.313.723-1.836 0-3.6-.241-5.293-.723a20.876 20.876 0 01-4.766-2.012 19.297 19.297 0 01-4.062-3.144 20.616 20.616 0 01-3.125-4.043 20.525 20.525 0 01-2.031-4.766A18.622 18.622 0 010 20c0-1.836.24-3.6.723-5.293A20.875 20.875 0 012.734 9.94 19.294 19.294 0 015.88 5.88a20.615 20.615 0 014.043-3.125A20.526 20.526 0 0114.687.722 18.622 18.622 0 0120 0zm14.883 10.84a22.46 22.46 0 00-.547-.82 86.838 86.838 0 00-.566-.801.685.685 0 01-.098.253c-.04.053-.065.17-.078.352 0 .117.045.228.136.332.092.104.209.208.352.313.143.104.286.182.43.234l.37.137zm-1.348-1.914c0 .104-.02.175-.058.214h.117c.052 0 .09.007.117.02l-.176-.234zM20 37.5c1.484 0 2.936-.189 4.355-.567a18.02 18.02 0 004.024-1.601 17.477 17.477 0 003.515-2.54 17.937 17.937 0 002.833-3.359c-.17-.39-.332-.787-.489-1.191a3.433 3.433 0 01-.234-1.25c0-.469.02-.846.059-1.133.039-.286.084-.54.136-.762.052-.22.078-.41.078-.566 0-.156-.02-.358-.058-.605-.04-.248-.15-.515-.332-.801-.183-.287-.423-.69-.723-1.211.013-.091.033-.215.059-.371.026-.156.052-.32.078-.488a1.94 1.94 0 00.02-.47 1.034 1.034 0 00-.098-.37A6.724 6.724 0 0132.168 20a3.085 3.085 0 01-.977-.469l.118-.098c-.17.04-.339.091-.508.157a5.51 5.51 0 00-.488.215 1.66 1.66 0 01-.508.156c-.183.026-.358.052-.528.078l-.312-.04.058-.136a7.696 7.696 0 00-.585.195 1.72 1.72 0 01-.606.117c-.13 0-.319-.045-.566-.136a6.18 6.18 0 01-.743-.332 4.163 4.163 0 01-.664-.43c-.195-.156-.293-.306-.293-.45l.04-.058a1.054 1.054 0 00-.254-.214 5.73 5.73 0 01-.293-.196 2.016 2.016 0 01-.254-.215.315.315 0 01-.098-.273l.215-.176-.45-.058-.156-.587c.027.066.085.092.176.079a.463.463 0 00.215-.079l-.703-.37.488-1.25c-.182-.678-.228-1.198-.137-1.563.092-.365.267-.664.528-.899.26-.234.547-.468.86-.703a5.52 5.52 0 00.956-.957l-.058-.234 1.289-1.563.293-.039c.364 0 .774-.013 1.23-.039a17.25 17.25 0 001.387-.136c.469-.065.93-.13 1.387-.196.455-.065.872-.15 1.25-.254a19.221 19.221 0 00-1.309-1.406 17.358 17.358 0 00-1.465-1.27 9.221 9.221 0 00-.527.215 3.781 3.781 0 00-.625.352c-.208.143-.371.3-.488.469-.118.17-.19.345-.215.527l.117.371c-.235.378-.495.612-.781.703-.287.092-.58.144-.88.157-.299.013-.611.013-.937 0a2.11 2.11 0 00-.937.175l-.313-.664.293-1.132-.332-.489 3.379-1.054a1.562 1.562 0 00-.703-.82 2.161 2.161 0 00-1.074-.274V4.51l1.093-.175a17.898 17.898 0 00-3.77-1.367A17.096 17.096 0 0020 2.499c-1.133 0-2.253.111-3.36.333a17.79 17.79 0 00-3.203.957A17.69 17.69 0 0010.45 5.35a16.73 16.73 0 00-2.636 2.11c.338 0 .598.084.78.254.183.169.352.358.509.566.156.208.319.397.488.566.17.17.397.26.683.274l.313-.235-.04-.43.645-.917-.507-1.445c.065-.04.162-.105.293-.196.13-.09.24-.137.332-.137.39 0 .69.02.898.06.208.038.39.11.547.214.156.104.293.254.41.45.117.194.3.442.547.741l.703-.547.625.254c.287.118.58.26.879.43.3.17.553.345.762.527.208.183.319.352.332.508a.575.575 0 01-.215.469 1.774 1.774 0 01-.567.293 4.502 4.502 0 01-.722.176c-.248.039-.495.09-.742.156a3.07 3.07 0 00-.567.195.425.425 0 00-.234.332l1.133.371c-.26.222-.54.424-.84.606-.3.182-.612.351-.938.508l.078.332-1.796.703v.547l-.137.058.098-.683-.079-.02c-.09 0-.143.02-.156.059a.433.433 0 00-.02.136c0 .053.014.105.04.157.026.052.032.09.02.117l-.255-.137.04.078c0 .04.019.098.058.176.039.078.091.15.156.215s.117.13.156.195c.04.065.066.098.079.098 0 .039-.027.078-.079.117a.44.44 0 01-.195.078c-.078.013-.13.033-.156.059-.026.026-.026.032 0 .02.182 0 .221.012.117.038a3.07 3.07 0 00-.488.196 1.98 1.98 0 00-.606.449c-.182.195-.286.482-.312.86 0 .22.006.435.02.644.012.208.006.423-.02.644-.182-.494-.456-.872-.82-1.132-.365-.26-.808-.391-1.329-.391l-.84.078.41.274c-.22-.026-.449-.053-.683-.079a4.424 4.424 0 00-.723-.02 1.778 1.778 0 00-.664.157c-.195.091-.39.228-.586.41l-.117.88c0 .416.091.754.274 1.015.182.26.501.397.957.41.39 0 .774-.059 1.152-.176a11.4 11.4 0 001.113-.41 7.84 7.84 0 01-.39.82 3.07 3.07 0 00-.313.86l.254.117c.313-.208.6-.241.86-.098s.514.352.761.625l.762.84c.26.287.54.495.84.625l-.664.352-1.563-.88a.716.716 0 01.04.176c.012.092.006.111-.02.06L7.89 19.96a6.298 6.298 0 01-1.328-.196 11.747 11.747 0 01-2.773-1.113 10.787 10.787 0 01-1.153-.742L2.5 20c0 1.588.215 3.138.645 4.648a18.19 18.19 0 001.816 4.258 17.048 17.048 0 002.871 3.633 18.02 18.02 0 003.77 2.793 1.939 1.939 0 01-.02-.82c.052-.274.117-.547.195-.82.079-.274.163-.548.254-.821a2.64 2.64 0 00.137-.84c0-.417-.065-.853-.195-1.309a15.82 15.82 0 00-.47-1.386 18.606 18.606 0 00-.605-1.387 9.997 9.997 0 01-.527-1.29 12.55 12.55 0 01-.312-1.132c-.079-.352-.04-.657.117-.918l-.293-.137c.078-.182.182-.358.312-.527.13-.17.267-.338.41-.508a1.986 1.986 0 00.47-1.133c0-.13-.027-.266-.079-.41a7.459 7.459 0 01-.137-.41l.41.098c.222-.508.521-.853.899-1.035.378-.183.853-.28 1.426-.293.065 0 .202.026.41.078.208.052.43.123.664.215.234.09.456.162.664.215.208.052.365.104.469.156 0 .09.052.15.156.175.104.027.163.072.176.137l-.04.157c.04.012.131.058.274.136.143.078.3.176.469.293.17.117.319.222.45.313.13.09.22.162.273.214.234 0 .553.079.957.235.403.156.846.352 1.328.586.482.234.957.514 1.425.84.47.325.912.65 1.329.976.416.326.735.651.957.977.221.325.351.612.39.86l-.664.702c.052.664.007 1.172-.136 1.524a2.106 2.106 0 01-.665.879c-.299.234-.644.43-1.035.586-.39.156-.814.377-1.27.664 0 .26-.064.54-.195.84-.13.299-.293.585-.488.859a2.7 2.7 0 01-.703.683c-.273.183-.547.274-.82.274l-.82-.625c.025.026.025.072 0 .137-.027.065-.06.078-.098.039.13.247.163.534.097.859a4.47 4.47 0 01-.332.996 7.503 7.503 0 01-.527.957c-.195.3-.371.554-.527.762a17.22 17.22 0 002.11.41c.702.091 1.412.137 2.128.137z" fill="#fff"/></g><defs><clipPath id="clip0_54_15047"><path fill="#fff" d="M0 0h40v40H0z"/></clipPath></defs></svg>