<svg width="16" height="29" fill="none" xmlns="http://www.w3.org/2000/svg"><path d="M8.615 12.719c-3.57-.933-4.72-1.948-4.72-3.46 0-1.74 1.593-2.962 4.236-2.962 2.784 0 3.834 1.367 3.914 3.397h3.45c-.1-2.775-1.755-5.323-5.023-6.152V0H5.77v3.5C2.724 4.165.282 6.195.282 9.322c0 3.708 3.007 5.573 7.385 6.65 3.934.953 4.721 2.382 4.721 3.873 0 1.098-.787 2.88-4.237 2.88-3.228 0-4.5-1.492-4.68-3.398H0c.202 3.522 2.744 5.51 5.77 6.153V29h4.722v-3.46c3.067-.6 5.488-2.402 5.508-5.737-.02-4.557-3.834-6.132-7.385-7.084z" fill="#fff"/></svg>