<svg width="30" height="30" fill="none" xmlns="http://www.w3.org/2000/svg"><path fill-rule="evenodd" clip-rule="evenodd" d="M13.333 6.667V0H15c8.283 0 15 6.717 15 15 0 8.283-6.717 15-15 15-8.3 0-15-6.717-15-15 0-4.917 2.367-9.25 6.017-11.983v-.034L17.35 14.317 15 16.667 5.967 7.633A11.53 11.53 0 003.333 15c0 6.45 5.217 11.667 11.667 11.667S26.667 21.45 26.667 15c0-5.883-4.35-10.717-10-11.533v3.2h-3.334zM15 25c-.917 0-1.667-.75-1.667-1.667 0-.916.75-1.666 1.667-1.666s1.667.75 1.667 1.666c0 .917-.75 1.667-1.667 1.667zm10-10c0-.917-.75-1.667-1.667-1.667-.916 0-1.666.75-1.666 1.667s.75 1.667 1.666 1.667c.917 0 1.667-.75 1.667-1.667zM6.667 16.667C5.75 16.667 5 15.917 5 15s.75-1.667 1.667-1.667c.916 0 1.666.75 1.666 1.667s-.75 1.667-1.666 1.667z" fill="#20C58B"/></svg>