<svg width="960" height="875" fill="none" xmlns="http://www.w3.org/2000/svg"><path d="M-214.929 367.059l-2.874 24.918-24.907-6.709-12.453-18.209-10.538-34.502v-23.959l10.538-4.792-4.79-33.543h-11.495l-5.748-44.086-8.621-23.959-20.117-10.542-24.907 5.75-11.495-19.168v-14.375L-350 149.507l33.528-22.043v-16.292l-10.537-3.834 10.537-13.417 15.327-14.376V69.004l15.328-14.375 34.486-20.126 53.645-27.793L-168.948 0l28.739 16.292 17.243 23.96-5.748 8.625 5.748 13.418 13.411 10.542 11.495-13.418 17.243 13.418-28.738 49.836-13.411 37.376 13.411 12.459 2.874 42.169-8.622 8.625-10.537 23.96-2.874 39.293-25.865 22.043h-14.369l-5.748 12.459-16.285 17.251h-10.537l-3.832 6.708-2.874 12.459-6.705 9.584zM41.8 847.207L51.38 875l36.402-2.875 19.159-24.918V833.79l9.58-2.875 7.663-14.376-2.874-20.126 21.075-5.75 3.832-16.293-3.832-23.959v-16.293l14.369-17.251 29.697-34.501 2.874-18.209h-29.697c7.025-2.556 22.225-7.667 26.823-7.667 4.598 0 16.604-10.862 22.033-16.293l20.117-16.292-5.748-10.543-4.79-9.583h18.201l22.033 3.833 9.579 9.584 8.622 6.709 7.663-3.834 2.874 28.752 11.496 25.876 6.705 7.667 12.454-7.667v-25.876l23.948-19.168 21.075-9.584 10.538 9.584 13.411 13.417 6.706 13.418v25.876l22.99 26.834 2.874-11.5-18.201-23.001 3.832-13.418 19.159 17.251 11.495-5.75 8.622-16.292-14.369-21.085 3.831-11.5 25.865-3.834 27.78-12.459 13.412-34.501-13.412-23.002-9.579-13.417 11.495-6.708h21.075l16.285 3.833 3.832-7.667 12.453-10.542 17.243-13.417 17.244-13.418 4.789-38.335-4.789-12.459-20.117-7.667 37.36-32.585h45.981l4.79-11.5 17.243-10.542 7.664 20.126-24.907 23.001v47.919l17.243-19.168 13.411-31.627 3.832-20.125 14.369-6.709 17.243 2.875 35.444-24.918v-36.418l31.613 22.042L789 328.724l-14.369-10.542-50.771-31.627-41.192 7.667-20.117-7.667-5.748-12.459h-33.528l-2.874-12.459-38.318-11.5-6.705 15.334h-28.739l-10.537 11.5-5.748-15.334v-23.959l-24.907-4.792-4.789 10.542-22.991-5.75h-41.192l20.117-15.334 4.79-23.96-4.79-15.334h-20.117l-10.537-18.209-15.327 6.709-6.706 19.167h-22.033l-18.201 11.501-22.033 16.292-8.621 14.376c-7.025 3.514-21.65 11.309-23.949 14.376-2.299 3.067-10.537 3.194-14.369 2.875l-2.874 26.834-8.621 6.709v-36.418l-10.538-9.584-12.453 32.585v33.543l-18.201-12.459-15.327-7.667-3.832 20.126h-24.907l-24.906 9.584-16.286 15.334-9.579 19.168-22.991 1.916-7.663-23.001 25.864 7.667 6.706-16.292-15.327-14.376-27.781-17.251-6.705-9.584-22.991-6.708-29.697 16.292-8.621 17.251-8.622 14.376-14.369 31.626-24.907 15.334-4.79 16.293 6.706 16.292 3.832 10.542 22.033-10.542v14.376l-15.327 9.584 5.747 5.75h17.244l12.453-11.501 8.621-18.209 1.916-8.625-6.705-7.667 2.873-14.376 16.286-22.043 10.537-10.542 4.79 10.542-15.327 22.043 2.873 22.043 7.664 6.709-3.832 12.458-6.705 17.251-12.454 9.584H8.272l-8.621 4.792-7.664 15.334-18.2 11.501h-23.95l-4.79 11.5 16.286 11.501v18.209h-34.486l4.79 9.584-4.79 22.042 11.495 4.792 11.496 4.792 11.495-4.792 8.622-16.292 6.705-12.459 15.327-4.792 16.285-6.709 21.075 23.96 4.79 16.292 7.664-4.792 2.873-13.417L23.6 502.191v-6.709l18.2 12.459 13.412 18.209v13.417l8.621 9.584h60.351v15.334l-14.369 8.626-13.411 4.792-15.328-7.668-17.242-2.875h-8.622v13.418L23.6 567.36l-8.622-12.459-2.874-10.542H-4.18l-39.276 7.667h-16.285l-13.411 18.209-3.832 14.376-15.327 6.709-14.369 26.834v42.169l14.369 14.376 19.159 23.001h37.36l21.075-7.667L-4.18 697.7H5.4l4.79 7.667 1.915 18.209L23.6 740.827l3.831 22.043-9.579 30.668 11.495 18.209 3.832 28.751 8.622 6.709zm930.265-538.153h1.39v-5.556l-3.244-7.409.927-2.779 7.415-5.093 4.635-4.631-.464-4.167.464-3.242 2.317-2.778 3.708-2.778 4.634-4.168v-3.241l3.708-2.778 7.875-2.779 3.25-3.241-3.25-4.168.93-5.093-4.17-1.389 1.85-2.316h12.98l8.81-6.946-3.71-5.093-7.42-6.946-1.85-6.946-7.42-12.965-5.558 11.113-3.244-6.946-1.39-5.093-3.245-.926-6.488-5.094-7.879-1.389.927 12.502-1.854 4.168 3.708 4.63-.463 6.02-5.562 4.167 3.244 10.188-5.098 2.315-3.707-4.631v-9.724l-6.952-.463-9.269-6.02h-2.781l-2.781-.926-1.854-6.482-2.317-.927.464-7.408 3.707-4.168 6.489-6.483 4.171-6.945 4.171-8.335 1.854 1.389 4.634-.463 2.317-6.483 1.854-8.335-5.098-3.704-5.561-1.39v5.094l-2.318 4.63-2.317 3.705-4.634-5.557-1.391-6.019-3.707-8.798-3.245-6.483.927-4.631 4.171-3.241L941.94 128l-1.39 17.133-.927 8.335 4.634 3.241v7.872l-4.171 6.946-.463-1.389v-7.409l.463-4.63-5.561-2.316-2.781 4.631 3.708 3.704-.927 3.242H928.5l-6.025-1.853-3.708-3.241-4.171.926-6.951 5.557h-7.879v-2.316l1.854-3.241-14.831-6.483-15.294-5.556-4.635 2.778-11.122 5.557-1.391 2.315h-1.39l-3.244-3.704-5.098-1.39-6.489-1.852-8.342-1.389-2.317-1.389h-5.098l-4.171-3.242-6.952-1.852-5.098 3.242-6.025 4.63-.927 4.631-4.635 2.778h-3.244v2.315l6.952 6.02 3.708 3.704.463 3.242-4.634-.463-1.854-2.316-6.952 5.557 4.171 5.094h7.879l2.781-.926v5.093l-8.806 1.852-3.244 5.557 2.78 5.557 3.245 4.167 3.244-.463v5.094h2.781l4.171-.463h2.78l-.927 4.63-5.098 5.557L789 230.335l1.39 1.389 15.294-8.335 7.416-6.02 6.488-6.482-1.39-1.853 5.098-6.482h1.854l-2.781 6.482h2.317l1.854-1.389 3.244-1.389 3.244-1.389 11.587 1.389 6.951 3.705 11.123 15.743 3.708 1.39 1.39 3.241 5.098 7.409-.927 2.315 7.416 7.872 1.854 6.483-.927 7.409v10.187l8.342 15.281h3.244l3.708 4.63 4.171 8.335 4.634 5.557 3.245 5.556 1.853 3.242h2.318l-.927-3.242-5.098-7.871-4.635-6.483v-3.242l2.317.927 1.854 2.778 2.318 3.241 6.488 6.946 5.098 7.409.927 6.02 13.44 7.872 12.977 2.315 1.854 2.315 4.171.926 4.634 1.389 2.317 2.779 3.245 5.556 6.951 4.168 5.099.926v-2.315l3.707.926-.927 8.798-2.78 3.704-2.781 4.168v5.556l-1.854 5.557 3.244 1.852 6.489 11.113 1.39 5.094 12.513 9.261-.463 16.67-1.854 6.02-.464 11.576-4.171 9.724-1.39 18.059-3.244 12.503.927 13.428 7.415 9.725 9.269 3.241 6.028-3.704-4.64-1.853-3.242-3.241-.463-5.094v-4.167l2.785-.926v-4.168l3.7-3.241v-2.315l-2.78-.926-.92-1.853v-1.852l4.63-1.852v-4.631l3.71-1.389v-1.852l-3.71-.463v-2.778h5.56l.93-4.168 8.34-2.778 2.32-5.094v-4.167l6.95-1.389 10.66-14.355v-6.946l6.95-5.557 7.42-.463 6.02-11.113v-10.187l7.88-8.798v-8.798l-5.1-.463-4.63-4.631h-7.42l-2.78-2.315-11.12-4.168-1.86-5.556-4.63-5.557-8.81-.926-1.39-2.315-8.8-6.02-5.1-.926-1.39.926-6.952-.926-3.244-4.168-11.123 2.779-1.39 4.167-2.781 1.852-2.317-3.704h-4.171l-3.245 1.852-1.853-.926-1.391-3.241.927-8.335-2.317-1.852h-7.415l-.464-1.39.464-4.167v-2.315l3.244-.463-.464-2.316-2.78-1.852-6.025 1.852-.927 4.168-6.952 1.852-4.171-3.241-2.781-5.557v-6.946l.927-1.389v-5.557l2.781-1.852 6.025-1.852 4.171 1.852h1.854l.927-1.852 1.853-1.389h8.806l3.244 3.241v3.705l4.635 5.093z" fill="#fff" style="mix-blend-mode:multiply"/></svg>