<svg width="300" height="293" fill="none" xmlns="http://www.w3.org/2000/svg"><path d="M216.578 246.416H163.74v46.243h51.873c8.203-3.619 14.959-8.766 19.865-14.798-1.931-9.972-9.088-23.001-18.9-31.445z" fill="#6F4BBB"/><path d="M213.522 250.276c6.997 7.238 13.914 16.004 16.246 25.976-4.182 4.987-9.651 8.847-15.522 11.662h-44.393v-37.638h43.669z" fill="#7D5DC2"/><path d="M225.747 266.039c1.367 1.93 3.94 9.731 4.101 10.214-4.182 4.986-9.651 8.846-15.521 11.661h-23.645v-20.186a428.527 428.527 0 0035.065-1.689z" fill="#9478CF"/><path d="M216.82 282.847c-5.469 1.85-8.043 5.308-8.847 9.812h19.06c-1.287-3.861-4.906-8.605-10.213-9.812z" fill="#5F3EA7"/><path d="M216.901 284.938c2.975.804 5.469 3.137 7.077 5.791h-7.158v-5.791h.081z" fill="#6F4BBB"/><path d="M198.001 281.721c-7.318 2.011-10.857 6.917-11.742 10.938h25.414c-1.689-4.262-6.836-9.972-13.672-10.938z" fill="#5F3EA7"/><path d="M198.162 283.732c4.021.724 7.962 3.539 10.294 6.997h-10.455v-6.997h.161zm-97.794-37.316h52.838v46.243h-51.873c-8.203-3.619-14.958-8.766-19.864-14.798 1.85-9.972 9.007-23.001 18.899-31.445z" fill="#6F4BBB"/><path d="M103.343 250.276c-6.997 7.238-13.913 16.004-16.246 25.976 4.182 4.987 9.651 8.847 15.522 11.662h44.393v-37.638h-43.669z" fill="#7D5DC2"/><path d="M91.2 266.039c-1.367 1.93-3.94 9.731-4.102 10.214 4.183 4.986 9.651 8.846 15.522 11.661h23.644v-20.186a426.793 426.793 0 01-35.064-1.689z" fill="#9478CF"/><path d="M100.045 282.847c5.469 1.85 8.043 5.308 8.847 9.812h-19.06c1.286-3.861 4.905-8.605 10.213-9.812z" fill="#5F3EA7"/><path d="M99.965 284.938c-2.976.804-5.469 3.137-7.077 5.791h7.157v-5.791h-.08z" fill="#6F4BBB"/><path d="M118.864 281.721c7.319 2.011 10.857 6.917 11.742 10.938h-25.414c1.689-4.262 6.836-9.972 13.672-10.938z" fill="#5F3EA7"/><path d="M118.784 283.732c-4.021.724-7.962 3.539-10.294 6.997h10.455v-6.997h-.161z" fill="#6F4BBB"/><path d="M299.736 260.65c-.322 8.445-2.252 15.039-5.951 19.141-5.791-.482-10.697-6.916-12.949-12.465 3.378-5.871 9.973-8.525 18.9-6.676z" fill="#5F3EA7"/><path d="M296.761 262.983c-.161 4.906-1.448 9.972-4.102 13.672l-2.252-13.35c2.011-.483 4.182-.483 6.354-.322z" fill="#6F4BBB"/><path d="M285.1 265.154c-.563 7.56-1.528 14.235-6.273 20.991-8.525-1.85-15.2-6.595-18.015-14.155 4.182-9.57 14.154-10.857 24.288-6.836z" fill="#5F3EA7"/><path d="M277.619 282.928l-5.71-16.809c3.217-.643 6.836-.16 10.294.966-.563 5.71-1.528 10.776-4.584 15.843z" fill="#6F4BBB"/><path d="M257.112 271.347c-1.448 8.605-9.571 12.867-13.672 12.626-1.85-3.136-3.7-7.238-3.7-12.144l3.539-2.975c5.388-1.046 11.098-.644 13.833 2.493z" fill="#5F3EA7"/><path d="M244.888 281.078c-1.609-2.413-2.654-6.112-2.815-9.651l5.79-.965-2.975 10.616z" fill="#6F4BBB"/><path d="M239.66 156.02v115.729c20.025 2.493 43.348 1.689 60.076-11.179-.322-10.777-1.367-21.312-3.297-31.365-3.62-18.175-10.455-34.742-22.278-48.334-10.455-11.983-20.91-17.693-34.501-24.851z" fill="#6F4BBB"/><path d="M294.106 257.916c-10.455 8.042-35.547 10.535-48.736 8.847V165.349c34.019 18.096 47.53 51.471 48.736 92.567z" fill="#9478CF"/><path d="M294.106 257.916c-5.308 4.102-14.315 6.675-23.725 8.123-1.367-25.816-1.206-64.66 4.585-74.954 12.626 17.934 18.336 40.855 19.14 66.831z" fill="#A58DD4"/><path d="M270.382 240.706a7.928 7.928 0 00-7.962 7.961 7.928 7.928 0 007.962 7.962 7.929 7.929 0 007.962-7.962 7.928 7.928 0 00-7.962-7.961z" fill="#9478CF"/><path d="M251.402 65.786c2.332-15.04-.241-22.84-3.297-36.593-9.571 7.962-15.683 13.672-27.344 19.543-2.332-14.556-7.479-28.309-14.959-41.176L201.379 0c-17.05 12.868-31.606 23.162-42.865 40.211-11.26-17.05-25.816-27.343-42.866-40.211l-4.423 7.56c-7.479 12.867-12.626 26.62-14.959 41.176-11.661-5.87-17.773-11.58-27.343-19.542-3.137 13.671-5.63 21.472-3.298 36.592l-21.07 5.79c4.181 55.01 8.444 101.896 13.832 156.905.724 7.56 1.528 15.2 2.332 22.76.242 2.171 2.896 6.112 14.155 6.193 55.009 3.699 112.592 3.699 167.521 0 11.259-.161 13.913-4.022 14.154-6.193.804-7.721 1.609-15.441 2.332-23.162.322-3.136.644-6.273.965-9.49 4.585-49.058 9.088-97.955 12.868-147.093l-21.071-5.79h-.241v.08z" fill="#6F4BBB"/><path d="M199.047 11.5c9.088 15.442 14.154 31.767 15.119 48.656 9.329-3.538 19.945-9.329 29.113-16.808 1.85 8.203 1.448 18.9-1.045 28.228 7.721 1.77 14.878 3.62 22.036 5.71-3.861 50.506-7.48 101.012-12.466 151.356-.482 4.986-1.528 15.763-2.091 20.749-2.01 1.126-6.192 1.126-7.881 1.207a1252.522 1252.522 0 01-166.636 0c-1.77-.161-5.871-.161-7.882-1.207-.563-4.905-1.608-15.923-2.09-20.749-4.907-50.425-8.606-100.93-12.466-151.356 7.157-2.09 14.315-3.94 22.035-5.71-2.493-9.329-2.895-20.025-1.045-28.228 9.088 7.56 19.784 13.27 29.113 16.808.965-16.808 6.032-33.214 15.12-48.655 18.497 13.993 30.641 24.126 40.533 44.393 9.972-20.267 22.036-30.4 40.613-44.393h-.08z" fill="#9478CF"/><path d="M199.047 11.5c-1.367 22.438-6.997 47.37-17.613 57.825 14.155-1.529 21.714-3.217 32.652-9.169 9.409-3.538 20.025-9.329 29.193-16.808-4.905 14.798-9.65 25.333-19.382 35.627 8.284-.16 13.029-2.895 18.337-7.399 7.721 1.77 14.878 3.62 22.036 5.71-3.861 50.506-7.48 101.012-12.466 151.356-.482 4.986-1.528 15.763-2.091 20.749-2.01 1.126-6.192 1.126-7.881 1.207-27.666 1.849-55.492 2.734-83.318 2.734v-30.078c42.946 3.378 82.192-64.338 37.075-108.812l9.007 4.986c1.126-7.158-1.126-16.085-4.102-23.323-5.87-14.074-21.472-24.529-41.98-27.022v-13.27c9.972-20.266 21.955-30.4 40.533-44.313z" fill="#A58DD4"/><path d="M93.13 78.975c-9.65-10.294-14.476-20.91-19.382-35.707-1.85 8.203-1.448 18.899 1.045 28.228 5.308 4.584 10.053 7.318 18.337 7.48zm16.326-4.182c-4.826 0-8.686 3.941-8.686 8.686 0 4.825 3.941 8.686 8.686 8.686 4.825 0 8.685-3.941 8.685-8.686s-3.94-8.686-8.685-8.686zM77.689 94.416c-3.298 0-6.032 2.735-6.032 6.032s2.734 6.032 6.032 6.032c3.297 0 6.031-2.735 6.031-6.032 0-3.378-2.654-6.032-6.031-6.032zm57.824-25.172C124.897 58.87 119.267 33.938 117.9 11.42c-9.088 15.441-14.154 31.767-15.119 48.656 11.018 5.951 18.577 7.64 32.732 9.168z" fill="#7D5DC2"/><path d="M237.328 87.42c-7.881 0-14.315 6.434-14.315 14.315 0 7.882 6.434 14.315 14.315 14.315 7.881 0 14.315-6.433 14.315-14.315 0-7.881-6.434-14.315-14.315-14.315zm9.249 43.911c-3.137 0-5.71 2.573-5.71 5.71 0 3.136 2.573 5.71 5.71 5.71 3.136 0 5.71-2.574 5.71-5.71 0-3.137-2.574-5.71-5.71-5.71z" fill="#9478CF"/><path d="M138.569 133.18c-5.067 0-9.893 1.046-14.235 3.056v.402c0 23.725 19.784 44.876 44.715 48.093 2.734-4.986 4.343-10.696 4.343-16.808 0-19.221-15.522-34.743-34.823-34.743z" fill="#EC6277"/><path d="M157.549 95.22c34.019 0 61.604 27.586 61.604 61.605s-27.585 61.604-61.604 61.604-61.604-27.585-61.604-61.604 27.585-61.604 61.604-61.604z" fill="#D3E8EF"/><path d="M97.554 142.831c5.388-23.162 23.886-41.337 47.208-46.243 25.414-1.93 46.002 15.843 46.002 40.051 0 24.368-20.91 46.001-46.565 48.253-25.735 2.252-46.565-15.602-46.565-40.05-.08-.644-.08-1.367-.08-2.011z" fill="#fff"/><path d="M176.53 133.18c19.221 0 34.742 15.522 34.742 34.743 0 19.221-15.521 34.743-34.742 34.743-19.222 0-34.743-15.522-34.743-34.743 0-19.141 15.521-34.743 34.743-34.743z" fill="#EA4E64"/><path d="M176.531 145.404c12.465 0 22.599 10.053 22.599 22.599 0 12.466-10.053 22.599-22.599 22.599-12.466 0-22.599-10.053-22.599-22.599 0-12.465 10.053-22.599 22.599-22.599z" fill="#232323"/><path d="M176.529 145.404c4.584 0 8.847 1.367 12.386 3.7-4.343 14.395-15.763 26.62-30.4 32.41-2.815-3.78-4.504-8.525-4.504-13.511-.08-12.465 9.972-22.599 22.518-22.599z" fill="#323232"/><path d="M151.92 141.946a14.21 14.21 0 0114.235 14.235 14.21 14.21 0 01-14.235 14.235 14.21 14.21 0 01-14.235-14.235 14.21 14.21 0 0114.235-14.235z" fill="#fff"/><path d="M230.01 185.053c-17.533-9.651-43.911 7.238-41.981 34.582 16.728-5.147 34.823-20.91 41.981-34.582z" fill="#6F4BBB"/><path d="M230.01 185.053c-15.924.322-33.537 9.329-41.981 34.582 20.025-2.252 38.683-17.532 41.981-34.582z" fill="#A58DD4"/><path d="M221.726 207.893c-2.333-.804-13.27-.563-14.155.643-1.045 1.448 1.85 8.847 4.906 13.672 4.021-3.217 7.318-7.64 9.249-14.315z" fill="#7D5DC2"/><path d="M224.942 205.239c-2.332-.804-13.269-.563-14.154.643-1.046 1.448 1.85 8.847 4.906 13.672 4.021-3.217 7.318-7.64 9.248-14.315z" fill="#fff"/><path d="M221.645 201.459c-.724 15.522-20.991 30.48-40.212 24.931-1.045 4.504 2.011 7.158 5.147 7.801 17.452 1.528 34.26-9.49 39.81-23.564 1.608-3.86-.161-8.685-4.745-9.168zm3.299 29.113c-4.826 9.088-12.386 13.351-20.669 14.718 11.822 5.308 22.277-1.77 20.669-14.718z" fill="#6F4BBB"/><path d="M216.98 232.744c-9.489 5.308-18.497 6.996-28.952 6.031 7.64 5.067 22.599 5.63 28.952-6.031z" fill="#9478CF"/><path d="M136.235 77.769c19.06-32.974 69.244-13.752 64.177 23.242-12.545-20.749-36.753-27.504-64.177-23.242z" fill="#5F3EA7"/><path d="M136.237 77.769c10.777-18.578 33.456-19.784 48.656-9.57.08 4.342-1.207 7.479-3.539 9.972-12.305-5.951-28.389-8.364-45.117-.402zM36.432 203.148C16.406 203.148 0 219.233 0 239.338c0 20.106 16.406 36.191 36.432 36.191 20.025 0 36.431-16.085 36.431-36.191 0-20.105-16.406-36.19-36.431-36.19z" fill="#6F4BBB"/><path d="M36.432 208.456c-17.21 0-31.124 13.833-31.124 30.802 0 17.05 13.913 30.802 31.124 30.802 17.21 0 31.124-13.833 31.124-30.802s-13.994-30.802-31.124-30.802z" fill="#9478CF"/><path d="M36.431 208.456c-12.224 0-22.76 6.997-27.906 17.13-1.126 16.085 18.497 27.907 31.606 22.358 9.65-5.228 16.326-15.441 16.326-27.103 0-1.93-.161-3.78-.563-5.629-5.389-4.182-12.144-6.756-19.462-6.756z" fill="#A58DD4"/><path d="M49.138 234.513c1.448-4.423-15.12-9.972-16.647-5.549l-16.407 49.138c-1.447 4.424 15.12 9.973 16.648 5.55l16.406-49.139z" fill="#2B3039"/><path d="M25.333 229.527c6.515 4.021 11.903 7.962 15.763 15.28-5.549 6.756-12.867 10.455-20.91 9.49-6.514-8.203-3.136-17.612 5.147-24.77z" fill="#5F3EA7"/><path d="M20.267 240.786c.965-2.815 2.734-5.469 4.986-8.042 4.986 3.217 9.088 6.675 12.224 11.661-3.458.322-8.846-.563-17.21-3.619z" fill="#6F4BBB"/><path d="M19.06 249.23c6.514 4.022 11.902 7.962 15.763 15.281-5.55 6.755-12.868 10.455-20.91 9.49-6.514-8.203-3.137-17.613 5.147-24.771z" fill="#5F3EA7"/><path d="M13.993 259.685c.965-2.814 2.734-5.468 4.986-8.042 4.986 3.217 9.088 6.675 12.225 11.662-3.459.402-8.847-.563-17.21-3.62z" fill="#6F4BBB"/><path d="M52.999 251.161c-6.193-1.528-11.662-2.493-18.337-.563-.804 7.238 1.207 13.832 6.434 18.014 8.686-.723 12.385-8.283 11.903-17.451z" fill="#5F3EA7"/><path d="M49.219 259.927c1.126-2.252 1.689-4.826 1.93-7.641-4.825-1.126-9.248-1.608-14.154-.563 1.769 2.333 5.469 4.987 12.224 8.204z" fill="#6F4BBB"/></svg>