<svg width="25" height="24" fill="transparent" xmlns="http://www.w3.org/2000/svg"><path d="M21.66 1.714H2.59A1.59 1.59 0 001 3.304v12.714c0 .877.712 1.59 1.59 1.59h19.07a1.59 1.59 0 001.59-1.59V3.304a1.59 1.59 0 00-1.59-1.59z" stroke="#FFF" stroke-width="1.695" stroke-linejoin="round"/><path d="M14.509 20.786l-.398-3.179h-3.973l-.397 3.179h4.768z" fill="#FFF" stroke="#FFF" stroke-width="1.695" stroke-linecap="round" stroke-linejoin="round"/><path d="M18.687 22.5H5.562" stroke="#FFF" stroke-width="2" stroke-linecap="round" stroke-linejoin="round"/><path d="M1 13.634v2.384a1.594 1.594 0 001.59 1.59h19.07a1.594 1.594 0 001.59-1.59v-2.384H1zm11.125 3.178a.795.795 0 110-1.59.795.795 0 010 1.59z" fill="#FFF"/></svg>