<svg width="242" height="237" fill="none" xmlns="http://www.w3.org/2000/svg"><path d="M174.86 199.062H132.2v37.335h41.881c6.623-2.921 12.077-7.077 16.038-11.947-1.558-8.051-7.337-18.57-15.259-25.388z" fill="#6F4BBB"/><path d="M172.393 202.178c5.649 5.844 11.233 12.921 13.116 20.973-3.376 4.026-7.792 7.142-12.532 9.415h-35.842v-30.388h35.258z" fill="#7D5DC2"/><path d="M182.261 214.905c1.104 1.558 3.182 7.857 3.312 8.246-3.377 4.026-7.792 7.143-12.532 9.415h-19.09v-16.298c9.415-.065 18.83-.519 28.31-1.363z" fill="#9478CF"/><path d="M175.055 228.476c-4.415 1.494-6.493 4.286-7.142 7.922h15.389c-1.039-3.117-3.961-6.948-8.247-7.922z" fill="#5F3EA7"/><path d="M175.119 230.164c2.403.649 4.416 2.532 5.714 4.675h-5.779v-4.675h.065z" fill="#6F4BBB"/><path d="M159.862 227.567c-5.909 1.623-8.766 5.584-9.48 8.831H170.9c-1.364-3.442-5.519-8.052-11.038-8.831z" fill="#5F3EA7"/><path d="M159.991 229.191c3.246.584 6.428 2.857 8.311 5.649h-8.441v-5.649h.13zm-78.956-30.129h42.66v37.335H81.814c-6.623-2.921-12.077-7.077-16.038-11.947 1.493-8.051 7.272-18.57 15.259-25.388z" fill="#6F4BBB"/><path d="M83.436 202.178c-5.649 5.844-11.233 12.921-13.116 20.973 3.377 4.026 7.792 7.142 12.532 9.415h35.842v-30.388H83.436z" fill="#7D5DC2"/><path d="M73.632 214.905c-1.104 1.558-3.182 7.857-3.312 8.246 3.377 4.026 7.792 7.143 12.532 9.415h19.09v-16.298a344.286 344.286 0 01-28.31-1.363z" fill="#9478CF"/><path d="M80.774 228.476c4.415 1.494 6.493 4.286 7.142 7.922H72.528c1.039-3.117 3.96-6.948 8.246-7.922z" fill="#5F3EA7"/><path d="M80.709 230.164c-2.403.649-4.416 2.532-5.714 4.675h5.779v-4.675h-.065z" fill="#6F4BBB"/><path d="M95.967 227.567c5.909 1.623 8.766 5.584 9.48 8.831H84.929c1.364-3.442 5.52-8.052 11.038-8.831z" fill="#5F3EA7"/><path d="M95.902 229.191c-3.246.584-6.428 2.857-8.31 5.649h8.44v-5.649h-.13z" fill="#6F4BBB"/><path d="M241.999 210.554c-.26 6.818-1.818 12.142-4.805 15.454-4.675-.39-8.636-5.584-10.454-10.065 2.727-4.74 8.052-6.882 15.259-5.389z" fill="#5F3EA7"/><path d="M239.598 212.438c-.13 3.961-1.169 8.052-3.312 11.039l-1.818-10.779c1.624-.39 3.377-.39 5.13-.26z" fill="#6F4BBB"/><path d="M230.183 214.191c-.454 6.103-1.234 11.493-5.065 16.947-6.882-1.493-12.272-5.324-14.544-11.428 3.376-7.727 11.428-8.766 19.609-5.519z" fill="#5F3EA7"/><path d="M224.143 228.54l-4.61-13.571c2.597-.519 5.519-.129 8.311.78-.455 4.61-1.234 8.7-3.701 12.791z" fill="#6F4BBB"/><path d="M207.585 219.19c-1.169 6.948-7.727 10.39-11.039 10.195-1.493-2.533-2.987-5.844-2.987-9.805l2.857-2.402c4.351-.845 8.961-.52 11.169 2.012z" fill="#5F3EA7"/><path d="M197.716 227.047c-1.299-1.948-2.143-4.935-2.273-7.791l4.675-.78-2.402 8.571z" fill="#6F4BBB"/><path d="M193.495 126.078v93.437c16.168 2.013 34.998 1.364 48.504-9.026-.26-8.7-1.104-17.206-2.662-25.323-2.922-14.674-8.441-28.05-17.986-39.024-8.441-9.675-16.882-14.285-27.856-20.064z" fill="#6F4BBB"/><path d="M237.454 208.347c-8.441 6.493-28.7 8.506-39.348 7.143v-81.879c27.466 14.609 38.374 41.556 39.348 74.736z" fill="#9478CF"/><path d="M237.454 208.347c-4.285 3.311-11.558 5.389-19.155 6.558-1.104-20.843-.974-52.205 3.701-60.517 10.195 14.48 14.805 32.986 15.454 53.959z" fill="#A58DD4"/><path d="M218.3 194.451a6.401 6.401 0 00-6.428 6.428 6.402 6.402 0 006.428 6.429 6.402 6.402 0 006.428-6.429 6.401 6.401 0 00-6.428-6.428z" fill="#9478CF"/><path d="M202.976 53.225c1.883-12.142-.195-18.44-2.662-29.544-7.727 6.429-12.662 11.039-22.077 15.779-1.883-11.753-6.038-22.856-12.077-33.245L162.589.11c-13.766 10.39-25.518 18.7-34.609 32.466C118.89 18.812 107.137 10.5 93.372.111L89.8 6.215C83.762 16.604 79.606 27.707 77.723 39.46c-9.415-4.74-14.35-9.35-22.077-15.779-2.532 11.039-4.545 17.337-2.662 29.544L35.972 57.9c3.377 44.414 6.818 82.269 11.168 126.682.585 6.104 1.234 12.272 1.883 18.376.195 1.753 2.338 4.935 11.428 4.999 44.414 2.987 90.905 2.987 135.253 0 9.09-.129 11.233-3.246 11.428-4.999.649-6.234 1.298-12.467 1.883-18.701.26-2.532.519-5.064.779-7.662 3.701-39.608 7.337-79.086 10.389-118.76l-17.012-4.675h-.195v.065z" fill="#6F4BBB"/><path d="M160.704 9.397c7.338 12.467 11.428 25.648 12.208 39.283 7.532-2.857 16.103-7.532 23.505-13.57 1.493 6.623 1.169 15.259-.844 22.79a308.229 308.229 0 0117.791 4.61c-3.117 40.778-6.039 81.555-10.064 122.202-.39 4.026-1.234 12.727-1.689 16.752-1.623.91-4.999.91-6.363.974a1011.081 1011.081 0 01-134.538 0c-1.429-.129-4.74-.129-6.364-.974-.454-3.96-1.298-12.856-1.688-16.752-3.96-40.712-6.947-81.489-10.064-122.201a308.155 308.155 0 0117.791-4.61c-2.013-7.532-2.337-16.168-.844-22.791 7.337 6.103 15.973 10.713 23.505 13.57.78-13.57 4.87-26.816 12.207-39.283 14.935 11.298 24.739 19.48 32.726 35.842 8.051-16.363 17.791-24.544 32.79-35.842h-.065z" fill="#9478CF"/><path d="M160.704 9.397c-1.103 18.116-5.649 38.245-14.22 46.686 11.428-1.234 17.532-2.598 26.363-7.403 7.597-2.857 16.168-7.532 23.57-13.57-3.961 11.947-7.792 20.453-15.649 28.764 6.688-.13 10.519-2.337 14.805-5.973a308.229 308.229 0 0117.791 4.61c-3.117 40.777-6.039 81.554-10.064 122.201-.39 4.026-1.234 12.727-1.689 16.752-1.623.91-4.999.91-6.363.974-22.336 1.494-44.803 2.208-67.269 2.208v-24.284c34.673 2.727 66.36-51.946 29.933-87.853l7.273 4.026c.909-5.779-.909-12.986-3.312-18.83-4.74-11.363-17.337-19.804-33.894-21.817V45.174c8.051-16.363 17.726-24.544 32.725-35.777z" fill="#A58DD4"/><path d="M75.19 63.874c-7.792-8.311-11.688-16.882-15.648-28.83-1.494 6.623-1.17 15.26.844 22.792 4.285 3.7 8.116 5.908 14.804 6.038zm13.181-3.376c-3.896 0-7.012 3.181-7.012 7.012 0 3.896 3.181 7.013 7.012 7.013 3.896 0 7.013-3.182 7.013-7.013 0-3.83-3.182-7.012-7.013-7.012zM62.723 76.34c-2.662 0-4.87 2.208-4.87 4.87s2.208 4.87 4.87 4.87 4.87-2.208 4.87-4.87c0-2.727-2.142-4.87-4.87-4.87zm46.686-20.324c-8.571-8.376-13.116-28.505-14.22-46.685-7.337 12.466-11.428 25.648-12.207 39.283 8.896 4.805 15 6.169 26.427 7.402z" fill="#7D5DC2"/><path d="M191.612 70.692c-6.363 0-11.558 5.194-11.558 11.558 0 6.363 5.195 11.558 11.558 11.558 6.363 0 11.558-5.195 11.558-11.558 0-6.364-5.195-11.558-11.558-11.558zm7.467 35.453c-2.532 0-4.61 2.077-4.61 4.61 0 2.532 2.078 4.61 4.61 4.61 2.532 0 4.61-2.078 4.61-4.61 0-2.533-2.078-4.61-4.61-4.61z" fill="#9478CF"/><path d="M127.2 76.99c-27.466 0-49.737 22.272-49.737 49.738s22.271 49.737 49.737 49.737 49.738-22.271 49.738-49.737S154.666 76.99 127.2 76.99z" fill="#D3E8EF"/><path d="M175.64 115.43c-4.35-18.7-19.284-33.375-38.114-37.336-20.519-1.558-37.141 12.792-37.141 32.336 0 19.675 16.882 37.141 37.595 38.959 20.778 1.818 37.595-12.597 37.595-32.336.065-.519.065-1.104.065-1.623z" fill="#fff"/><path d="M111.877 107.638c-15.52 0-28.05 12.532-28.05 28.05 0 15.519 12.53 28.051 28.05 28.051 15.518 0 28.05-12.532 28.05-28.051 0-15.453-12.532-28.05-28.05-28.05z" fill="#EA4E64"/><path d="M111.876 107.638c-4.091 0-7.987.844-11.493 2.467v.325c0 19.155 15.973 36.232 36.102 38.829 2.208-4.026 3.506-8.636 3.506-13.571 0-15.518-12.532-28.05-28.115-28.05z" fill="#EC6277"/><path d="M111.875 117.507c-10.064 0-18.246 8.117-18.246 18.246 0 10.065 8.117 18.246 18.246 18.246 10.065 0 18.246-8.117 18.246-18.246 0-10.064-8.116-18.246-18.246-18.246z" fill="#232323"/><path d="M111.876 117.507a18.121 18.121 0 00-9.999 2.987c3.506 11.623 12.727 21.493 24.544 26.168 2.273-3.052 3.636-6.883 3.636-10.909.065-10.064-8.051-18.246-18.181-18.246z" fill="#323232"/><path d="M131.746 114.716a11.472 11.472 0 00-11.493 11.492c0 6.364 5.13 11.493 11.493 11.493a11.472 11.472 0 0011.493-11.493c0-6.363-5.13-11.492-11.493-11.492z" fill="#fff"/><path d="M185.704 149.519c-14.155-7.792-35.453 5.844-33.894 27.921 13.506-4.156 28.115-16.883 33.894-27.921z" fill="#6F4BBB"/><path d="M185.704 149.519c-12.856.26-27.076 7.532-33.894 27.921 16.168-1.818 31.232-14.155 33.894-27.921z" fill="#A58DD4"/><path d="M179.015 167.959c-1.883-.649-10.713-.454-11.428.52-.844 1.169 1.494 7.142 3.961 11.038 3.247-2.597 5.909-6.168 7.467-11.558z" fill="#7D5DC2"/><path d="M181.613 165.816c-1.883-.649-10.714-.454-11.428.52-.844 1.169 1.493 7.142 3.961 11.038 3.246-2.597 5.908-6.168 7.467-11.558z" fill="#fff"/><path d="M178.951 162.764c-.585 12.532-16.948 24.609-32.466 20.129-.844 3.636 1.623 5.779 4.155 6.298 14.091 1.234 27.661-7.662 32.142-19.025 1.298-3.116-.13-7.012-3.831-7.402zm2.663 23.507c-3.896 7.337-10 10.778-16.688 11.882 9.545 4.286 17.986-1.428 16.688-11.882z" fill="#6F4BBB"/><path d="M175.185 188.022c-7.662 4.286-14.935 5.65-23.376 4.87 6.169 4.091 18.246 4.546 23.376-4.87z" fill="#9478CF"/><path d="M109.994 62.9c15.388-26.621 55.906-11.103 51.815 18.766-10.129-16.753-29.674-22.207-51.815-18.765z" fill="#5F3EA7"/><path d="M109.994 62.9c8.701-15 27.012-15.974 39.284-7.727.065 3.506-.974 6.038-2.857 8.051-9.935-4.805-22.921-6.753-36.427-.324zm-80.58 101.228C13.246 164.128 0 177.115 0 193.348c0 16.233 13.246 29.219 29.414 29.219s29.414-12.986 29.414-29.219-13.246-29.22-29.414-29.22z" fill="#6F4BBB"/><path d="M29.414 168.415c-13.895 0-25.129 11.168-25.129 24.868 0 13.766 11.234 24.869 25.129 24.869 13.895 0 25.128-11.168 25.128-24.869 0-13.7-11.298-24.868-25.128-24.868z" fill="#9478CF"/><path d="M29.414 168.415c-9.87 0-18.375 5.649-22.531 13.83-.909 12.986 14.934 22.531 25.518 18.051 7.792-4.221 13.181-12.467 13.181-21.882 0-1.558-.13-3.052-.454-4.545-4.35-3.377-9.805-5.454-15.714-5.454z" fill="#A58DD4"/><path d="M39.673 189.452c1.168-3.571-12.208-8.051-13.441-4.48l-13.246 39.673c-1.17 3.571 12.207 8.052 13.44 4.48l13.247-39.673z" fill="#2B3039"/><path d="M20.453 185.427c5.26 3.246 9.61 6.428 12.726 12.337-4.48 5.454-10.389 8.441-16.882 7.662-5.26-6.623-2.532-14.22 4.156-19.999z" fill="#5F3EA7"/><path d="M16.362 194.516c.78-2.273 2.208-4.416 4.026-6.494 4.025 2.598 7.337 5.39 9.87 9.416-2.793.259-7.143-.455-13.896-2.922z" fill="#6F4BBB"/><path d="M15.387 201.334c5.26 3.247 9.61 6.429 12.727 12.337-4.48 5.455-10.389 8.442-16.882 7.662-5.26-6.623-2.533-14.22 4.155-19.999z" fill="#5F3EA7"/><path d="M11.296 209.776c.78-2.273 2.208-4.415 4.026-6.493 4.026 2.597 7.337 5.389 9.87 9.415-2.792.324-7.143-.455-13.896-2.922z" fill="#6F4BBB"/><path d="M42.79 202.893c-5-1.234-9.416-2.013-14.805-.455-.65 5.844.974 11.169 5.194 14.545 7.013-.584 10-6.688 9.61-14.09z" fill="#5F3EA7"/><path d="M39.738 209.971c.91-1.818 1.364-3.896 1.558-6.169-3.895-.909-7.467-1.298-11.428-.454 1.429 1.883 4.416 4.025 9.87 6.623z" fill="#6F4BBB"/><path d="M52.79 95.431c26.556 1.494 46.88 24.285 45.387 50.842-1.494 26.557-24.285 46.88-50.842 45.387-26.557-1.493-46.88-24.284-45.387-50.841 1.493-26.558 24.22-46.881 50.841-45.388z" fill="#393F4C"/><path d="M52.399 101.404c23.245 1.299 41.101 21.298 39.803 44.608-1.299 23.246-21.298 41.102-44.608 39.738-23.246-1.298-41.102-21.297-39.803-44.608 1.363-23.245 21.297-41.101 44.608-39.738z" fill="#D3E8EF"/><path d="M17.92 164.453c-4.285-6.623-6.622-14.61-6.168-23.116.974-16.817 12.597-30.518 27.986-34.738 1.233 14.545 2.532 28.83 3.895 43.504-5.13 2.078-18.375 8.701-25.712 14.35zm35.129-58.374c20.258 1.169 35.777 18.506 34.543 38.765-.194 2.857-.649 5.649-1.428 8.246.065-.585.13-1.169.13-1.818 1.298-23.505-16.623-43.634-40.128-44.998h-.195c2.273-.195 4.675-.324 7.078-.195z" fill="#fff"/><path d="M86.164 165.427a37.147 37.147 0 01-2.533 3.701l-12.467-17.272-28.7 11.948-16.622-34.349-16.687 3.181c.454-1.558.909-3.116 1.493-4.61l17.532-3.376 16.297 33.699 28.05-11.687 13.637 18.765z" fill="#999"/><path d="M72.398 140.558c-4.805-.259-8.896 3.377-9.155 8.182-.26 4.805 3.376 8.896 8.18 9.155 4.806.26 8.897-3.376 9.156-8.181.325-4.74-3.376-8.831-8.181-9.156z" fill="#1EC185"/><path d="M27.53 118.417c-4.805-.26-8.896 3.376-9.156 8.181-.26 4.805 3.377 8.896 8.182 9.155 4.805.26 8.895-3.376 9.155-8.181.325-4.805-3.376-8.896-8.181-9.155z" fill="#EA4E64"/><path d="M44.022 152.441c-4.805-.26-8.896 3.376-9.155 8.181-.26 4.805 3.376 8.896 8.181 9.156 4.805.259 8.896-3.377 9.155-8.182.325-4.805-3.376-8.895-8.181-9.155z" fill="#FF893A"/></svg>