<svg width="346" height="131" fill="none" xmlns="http://www.w3.org/2000/svg"><mask id="a" style="mask-type:alpha" maskUnits="userSpaceOnUse" x="0" y="0" width="346" height="131"><path fill="#D9D9D9" d="M0 0h345.24v131H0z"/></mask><g mask="url(#a)"><path d="M307.016 81.053c2.874-18.53-.297-28.14-4.062-45.085-11.792 9.81-19.322 16.845-33.69 24.078-2.873-17.934-9.215-34.878-18.43-50.732L245.384 0c-21.006 15.854-38.941 28.537-52.813 49.543C178.699 28.537 160.765 15.853 139.758 0l-5.449 9.314c-9.216 15.854-15.557 32.798-18.431 50.732-14.367-7.233-21.898-14.268-33.689-24.078-3.864 16.845-6.936 26.456-4.063 45.085l-25.96 7.134c5.152 67.775 10.404 125.543 17.043 193.318.891 9.314 1.882 18.727 2.873 28.041.297 2.676 3.567 7.531 17.44 7.63 67.775 4.558 138.721 4.558 206.397 0 13.872-.198 17.142-4.954 17.439-7.63.991-9.512 1.982-19.024 2.873-28.537.397-3.864.793-7.728 1.189-11.692 5.648-60.443 11.197-120.687 15.854-181.23l-25.96-7.133h-.298v.099z" fill="#6F4BBB"/><path d="M242.511 14.17c11.197 19.024 17.439 39.139 18.628 59.947 11.494-4.36 24.574-11.494 35.87-20.71 2.279 10.108 1.783 23.286-1.289 34.78 9.513 2.18 18.331 4.46 27.15 7.035-4.756 62.227-9.215 124.453-15.358 186.481-.595 6.143-1.883 19.421-2.577 25.564-2.477 1.388-7.629 1.388-9.71 1.487a1542.994 1542.994 0 01-205.307 0c-2.18-.198-7.234-.198-9.71-1.487-.694-6.044-1.982-19.619-2.577-25.564-6.044-62.127-10.602-124.353-15.358-186.48 8.818-2.577 17.637-4.856 27.15-7.036-3.072-11.494-3.568-24.672-1.289-34.78 11.197 9.315 24.376 16.35 35.87 20.71 1.189-20.71 7.431-40.923 18.628-59.947 22.79 17.24 37.752 29.726 49.939 54.695 12.287-24.97 27.15-37.454 50.039-54.695h-.099z" fill="#9478CF"/><path d="M242.511 14.17c-1.684 27.645-8.621 58.362-21.7 71.243 17.439-1.883 26.753-3.964 40.229-11.296 11.593-4.36 24.673-11.494 35.969-20.71-6.045 18.233-11.891 31.213-23.88 43.896 10.206-.198 16.052-3.567 22.591-9.116 9.513 2.18 18.331 4.46 27.15 7.035-4.756 62.227-9.215 124.453-15.358 186.481-.595 6.144-1.883 19.421-2.577 25.565-2.477 1.387-7.629 1.387-9.71 1.486-34.086 2.279-68.37 3.369-102.654 3.369v-37.059c52.913 4.162 101.267-79.269 45.679-134.064l11.098 6.144c1.387-8.819-1.387-19.818-5.053-28.735-7.234-17.34-26.457-30.222-51.724-33.293v-16.35c12.287-24.97 27.051-37.454 49.94-54.596z" fill="#A58DD4"/><path d="M112.013 97.303c-11.89-12.683-17.835-25.763-23.88-43.995-2.278 10.107-1.783 23.286 1.289 34.78 6.54 5.648 12.385 9.017 22.591 9.215zm20.115-5.153c-5.945 0-10.701 4.855-10.701 10.702 0 5.945 4.855 10.701 10.701 10.701 5.945 0 10.701-4.855 10.701-10.701 0-5.847-4.855-10.702-10.701-10.702zm-39.14 24.177c-4.062 0-7.43 3.369-7.43 7.432 0 4.062 3.368 7.431 7.43 7.431 4.063 0 7.432-3.369 7.432-7.431 0-4.162-3.27-7.432-7.431-7.432zm71.244-31.014c-13.079-12.782-20.016-43.499-21.7-71.243-11.197 19.025-17.439 39.14-18.628 59.947 13.575 7.333 22.889 9.414 40.328 11.296z" fill="#7D5DC2"/><path d="M289.675 107.707c-9.711 0-17.637 7.927-17.637 17.637 0 9.711 7.926 17.638 17.637 17.638 9.71 0 17.637-7.927 17.637-17.638 0-9.71-7.927-17.637-17.637-17.637zm11.395 54.101c-3.865 0-7.035 3.171-7.035 7.035 0 3.865 3.17 7.035 7.035 7.035 3.864 0 7.035-3.17 7.035-7.035 0-3.864-3.171-7.035-7.035-7.035z" fill="#9478CF"/><path d="M191.382 117.319c-41.914 0-75.9 33.987-75.9 75.9 0 41.914 33.986 75.901 75.9 75.901 41.914 0 75.9-33.987 75.9-75.901 0-41.913-33.986-75.9-75.9-75.9z" fill="#D3E8EF"/><path d="M265.3 175.978c-6.639-28.537-29.429-50.93-58.164-56.974-31.312-2.378-56.678 19.52-56.678 49.345 0 30.023 25.763 56.677 57.371 59.452 31.708 2.774 57.371-19.223 57.371-49.346.1-.792.1-1.684.1-2.477z" fill="#fff"/><path d="M165.121 95.816c23.483-40.625 85.313-16.943 79.071 28.636-15.458-25.564-45.283-33.887-79.071-28.636z" fill="#5F3EA7"/><path d="M165.125 95.816c13.278-22.889 41.22-24.375 59.948-11.79.099 5.35-1.487 9.214-4.36 12.286-15.16-7.333-34.978-10.305-55.588-.496z" fill="#6F4BBB"/></g></svg>