<svg width="36" height="36" fill="none" xmlns="http://www.w3.org/2000/svg"><path d="M26.167 3.562a1.86 1.86 0 01-1.297-.522 1.756 1.756 0 01-.537-1.259c0-.472.194-.925.537-1.26A1.86 1.86 0 0126.167 0H33.5c.486 0 .953.188 1.296.522.344.334.537.787.537 1.259v7.124c0 .472-.193.925-.537 1.26-.343.333-.81.521-1.296.521s-.953-.188-1.296-.522a1.755 1.755 0 01-.537-1.259V6.08l-10.62 10.318c-.345.334-.81.521-1.297.521a1.86 1.86 0 01-1.296-.521l-5.12-4.975L3.63 20.85a1.862 1.862 0 01-1.29.5 1.86 1.86 0 01-1.28-.521 1.756 1.756 0 01-.537-1.244 1.75 1.75 0 01.514-1.253l11-10.686a1.86 1.86 0 011.296-.522c.486 0 .953.188 1.296.522l5.121 4.974 9.324-9.058h-2.907zm-22 24.934v5.343c0 .473-.193.926-.537 1.26a1.86 1.86 0 01-1.297.521 1.86 1.86 0 01-1.296-.521 1.756 1.756 0 01-.537-1.26v-5.343c0-.472.193-.925.537-1.26.344-.333.81-.52 1.296-.52.487 0 .953.187 1.297.52.344.335.537.788.537 1.26zm9.166-7.124c0-.472-.193-.925-.537-1.26a1.861 1.861 0 00-1.296-.52c-.486 0-.953.187-1.296.52a1.756 1.756 0 00-.537 1.26V33.84c0 .473.193.926.537 1.26.343.334.81.521 1.296.521s.953-.187 1.296-.521c.344-.334.537-.787.537-1.26V21.372zm7.334 1.781c.486 0 .952.188 1.296.522.344.334.537.787.537 1.26v8.904c0 .473-.193.926-.537 1.26a1.86 1.86 0 01-1.296.521 1.86 1.86 0 01-1.297-.521 1.756 1.756 0 01-.537-1.26v-8.905c0-.472.194-.925.537-1.26a1.86 1.86 0 011.297-.52zm11-7.124c0-.472-.194-.925-.537-1.26a1.861 1.861 0 00-1.297-.52c-.486 0-.952.187-1.296.52A1.756 1.756 0 0028 16.03v17.81c0 .473.193.926.537 1.26.344.334.81.521 1.296.521a1.86 1.86 0 001.297-.521c.344-.334.537-.787.537-1.26V16.03z" fill="#6F4BBB"/></svg>